HIERARCHY
ROOT Hips
{
    OFFSET   0.000000   0.000000   0.000000
    CHANNELS 6 Xposition Yposition Zposition Zrotation Xrotation Yrotation
    JOINT Chest
    {
        OFFSET   0.000000   8.007230   0.000000
        CHANNELS 3 Zrotation Xrotation Yrotation
        JOINT Chest2
        {
            OFFSET   0.000000  22.077100   0.000000
            CHANNELS 3 Zrotation Xrotation Yrotation
            JOINT Neck
            {
                OFFSET   0.000000  23.254800  -0.000021
                CHANNELS 3 Zrotation Xrotation Yrotation
                JOINT Head
                {
                    OFFSET   0.000000  14.370000   1.956610
                    CHANNELS 3 Zrotation Xrotation Yrotation
                    End Site
                    {
                        OFFSET   0.000000  19.566000   0.000000
                    }
                }
            }
            JOINT LeftCollar
            {
                OFFSET   3.911900  19.017000  -0.467063
                CHANNELS 3 Zrotation Xrotation Yrotation
                JOINT LeftShoulder
                {
                    OFFSET  10.383700   0.000000   0.000000
                    CHANNELS 3 Zrotation Xrotation Yrotation
                    JOINT LeftElbow
                    {
                        OFFSET  26.662100   0.001529   0.000325
                        CHANNELS 3 Zrotation Xrotation Yrotation
                        JOINT LeftWrist
                        {
                            OFFSET  28.869000  -0.000011  -0.000096
                            CHANNELS 3 Zrotation Xrotation Yrotation
                            JOINT LeftFinger0
                            {
                                OFFSET   2.044650  -2.323460   3.252850
                                CHANNELS 3 Zrotation Xrotation Yrotation
                                JOINT LeftFinger01
                                {
                                    OFFSET   3.088130   0.000000   0.000000
                                    CHANNELS 3 Zrotation Xrotation Yrotation
                                    JOINT LeftFinger02
                                    {
                                        OFFSET   2.639460   0.000000   0.000000
                                        CHANNELS 3 Zrotation Xrotation Yrotation
                                        End Site
                                        {
                                            OFFSET   2.582190   0.000000   0.000000
                                        }
                                    }
                                }
                            }
                            JOINT LeftFinger1
                            {
                                OFFSET   8.364480   0.000000   3.252850
                                CHANNELS 3 Zrotation Xrotation Yrotation
                                JOINT LeftFinger11
                                {
                                    OFFSET   4.646930   0.000000   0.000000
                                    CHANNELS 3 Zrotation Xrotation Yrotation
                                    JOINT LeftFinger12
                                    {
                                        OFFSET   2.323460   0.000000   0.000000
                                        CHANNELS 3 Zrotation Xrotation Yrotation
                                        End Site
                                        {
                                            OFFSET   2.273050   0.000000   0.000000
                                        }
                                    }
                                }
                            }
                            JOINT LeftFinger2
                            {
                                OFFSET   8.364480   0.000016   1.078090
                                CHANNELS 3 Zrotation Xrotation Yrotation
                                JOINT LeftFinger21
                                {
                                    OFFSET   5.111620   0.000000   0.000000
                                    CHANNELS 3 Zrotation Xrotation Yrotation
                                    JOINT LeftFinger22
                                    {
                                        OFFSET   2.788160   0.000017   0.000000
                                        CHANNELS 3 Zrotation Xrotation Yrotation
                                        End Site
                                        {
                                            OFFSET   2.727660   0.000000   0.000000
                                        }
                                    }
                                }
                            }
                            JOINT LeftFinger3
                            {
                                OFFSET   7.899780   0.000015  -1.078090
                                CHANNELS 3 Zrotation Xrotation Yrotation
                                JOINT LeftFinger31
                                {
                                    OFFSET   4.646920   0.000000   0.000000
                                    CHANNELS 3 Zrotation Xrotation Yrotation
                                    JOINT LeftFinger32
                                    {
                                        OFFSET   2.323470   0.000000   0.000000
                                        CHANNELS 3 Zrotation Xrotation Yrotation
                                        End Site
                                        {
                                            OFFSET   2.273050   0.000000   0.000000
                                        }
                                    }
                                }
                            }
                            JOINT LeftFinger4
                            {
                                OFFSET   7.435090   0.000000  -3.252850
                                CHANNELS 3 Zrotation Xrotation Yrotation
                                JOINT LeftFinger41
                                {
                                    OFFSET   3.717550   0.000000   0.000000
                                    CHANNELS 3 Zrotation Xrotation Yrotation
                                    JOINT LeftFinger42
                                    {
                                        OFFSET   1.858760   0.000000   0.000000
                                        CHANNELS 3 Zrotation Xrotation Yrotation
                                        End Site
                                        {
                                            OFFSET   1.818440   0.000000   0.000000
                                        }
                                    }
                                }
                            }
                        }
                    }
                }
            }
            JOINT RightCollar
            {
                OFFSET  -3.911900  19.017000  -0.467062
                CHANNELS 3 Zrotation Xrotation Yrotation
                JOINT RightShoulder
                {
                    OFFSET -10.383700   0.000015   0.000000
                    CHANNELS 3 Zrotation Xrotation Yrotation
                    JOINT RightElbow
                    {
                        OFFSET -26.662100   0.001341   0.000385
                        CHANNELS 3 Zrotation Xrotation Yrotation
                        JOINT RightWrist
                        {
                            OFFSET -28.869000   0.000025  -0.000080
                            CHANNELS 3 Zrotation Xrotation Yrotation
                            JOINT RightFinger0
                            {
                                OFFSET  -2.044650  -2.323490   3.252850
                                CHANNELS 3 Zrotation Xrotation Yrotation
                                JOINT RightFinger01
                                {
                                    OFFSET  -3.088130   0.000000   0.000000
                                    CHANNELS 3 Zrotation Xrotation Yrotation
                                    JOINT RightFinger02
                                    {
                                        OFFSET  -2.639460   0.000000   0.000000
                                        CHANNELS 3 Zrotation Xrotation Yrotation
                                        End Site
                                        {
                                            OFFSET  -2.582190   0.000000   0.000000
                                        }
                                    }
                                }
                            }
                            JOINT RightFinger1
                            {
                                OFFSET  -8.364480   0.000000   3.252850
                                CHANNELS 3 Zrotation Xrotation Yrotation
                                JOINT RightFinger11
                                {
                                    OFFSET  -4.646930   0.000000   0.000000
                                    CHANNELS 3 Zrotation Xrotation Yrotation
                                    JOINT RightFinger12
                                    {
                                        OFFSET  -2.323470   0.000000   0.000000
                                        CHANNELS 3 Zrotation Xrotation Yrotation
                                        End Site
                                        {
                                            OFFSET  -2.273050   0.000000   0.000000
                                        }
                                    }
                                }
                            }
                            JOINT RightFinger2
                            {
                                OFFSET  -8.364480   0.000000   1.078090
                                CHANNELS 3 Zrotation Xrotation Yrotation
                                JOINT RightFinger21
                                {
                                    OFFSET  -5.111610   0.000000   0.000000
                                    CHANNELS 3 Zrotation Xrotation Yrotation
                                    JOINT RightFinger22
                                    {
                                        OFFSET  -2.788160   0.000000   0.000000
                                        CHANNELS 3 Zrotation Xrotation Yrotation
                                        End Site
                                        {
                                            OFFSET  -2.727660   0.000000   0.000000
                                        }
                                    }
                                }
                            }
                            JOINT RightFinger3
                            {
                                OFFSET  -7.899780   0.000000  -1.078090
                                CHANNELS 3 Zrotation Xrotation Yrotation
                                JOINT RightFinger31
                                {
                                    OFFSET  -4.646920   0.000000   0.000000
                                    CHANNELS 3 Zrotation Xrotation Yrotation
                                    JOINT RightFinger32
                                    {
                                        OFFSET  -2.323470   0.000000   0.000000
                                        CHANNELS 3 Zrotation Xrotation Yrotation
                                        End Site
                                        {
                                            OFFSET  -2.273050   0.000000   0.000000
                                        }
                                    }
                                }
                            }
                            JOINT RightFinger4
                            {
                                OFFSET  -7.435090   0.000000  -3.252850
                                CHANNELS 3 Zrotation Xrotation Yrotation
                                JOINT RightFinger41
                                {
                                    OFFSET  -3.717550   0.000000   0.000000
                                    CHANNELS 3 Zrotation Xrotation Yrotation
                                    JOINT RightFinger42
                                    {
                                        OFFSET  -1.858770   0.000000   0.000000
                                        CHANNELS 3 Zrotation Xrotation Yrotation
                                        End Site
                                        {
                                            OFFSET  -1.818440   0.000000   0.000000
                                        }
                                    }
                                }
                            }
                        }
                    }
                }
            }
        }
    }
    JOINT LeftHip
    {
        OFFSET   9.783010   0.000000   0.000000
        CHANNELS 3 Zrotation Xrotation Yrotation
        JOINT LeftKnee
        {
            OFFSET   0.000070 -41.789100   0.000028
            CHANNELS 3 Zrotation Xrotation Yrotation
            JOINT LeftAnkle
            {
                OFFSET   0.000087 -41.133200  -0.000100
                CHANNELS 3 Zrotation Xrotation Yrotation
                JOINT LeftToe
                {
                    OFFSET   0.000000  -6.358960  14.674500
                    CHANNELS 3 Zrotation Xrotation Yrotation
                    End Site
                    {
                        OFFSET   0.000000   0.000000   3.913200
                    }
                }
            }
        }
    }
    JOINT RightHip
    {
        OFFSET  -9.783020   0.000000   0.000000
        CHANNELS 3 Zrotation Xrotation Yrotation
        JOINT RightKnee
        {
            OFFSET   0.000044 -41.789100  -0.000870
            CHANNELS 3 Zrotation Xrotation Yrotation
            JOINT RightAnkle
            {
                OFFSET  -0.000090 -41.133200  -0.000245
                CHANNELS 3 Zrotation Xrotation Yrotation
                JOINT RightToe
                {
                    OFFSET   0.000000  -6.358960  14.674500
                    CHANNELS 3 Zrotation Xrotation Yrotation
                    End Site
                    {
                        OFFSET   0.000000   0.000000   3.913200
                    }
                }
            }
        }
    }
}
MOTION
Frames: 5
Frame Time:   0.016667
  0.352597  89.568700   0.937800  -0.784213  -0.012596   2.288820   0.538705   0.975951  -0.121032   1.079700   1.950710  -0.251292  -0.582538   2.465360   0.019821  -0.962034   4.997130   0.965619  -2.078490   1.899580   5.022040 -80.523700   2.246560   5.322380  -0.068345   6.588740 -15.582300   6.375130  -6.478030  -6.404440  37.566400  26.225700 -55.555200 -29.635300  -0.002297   0.006279  -9.817650   0.013976   0.002831 -28.735300  -1.309880   2.379360 -23.533200  -0.007880   0.000642 -16.473200  -0.005629   0.001575 -23.979100  -4.163760   9.253730 -24.316900   0.001891   0.005419 -16.195000  -0.001381  -0.010784 -28.038100  -4.802750   8.937120 -35.178900   0.002813   0.001718 -23.429100   0.002003   0.000154 -33.159200  -5.585220   8.472560 -50.359900   0.002691  -0.002355 -33.537700   0.001524   0.000949   5.986810   2.950080   1.516010  75.279800  -5.251130   0.191537   3.333810  -3.588500  12.073000 -16.562900   4.316450  -0.466819 -39.015100  34.645300  76.113700  26.889900  -0.004007  -0.004369   8.444930   0.008593  -0.002148  23.414800  -0.284111  -0.656061  19.159100   0.001647  -0.001991  13.411400   0.002340   0.001759  28.376100  -2.191610  -4.051220  35.550800   0.002295  -0.000928  23.676900  -0.000199   0.008317  28.477900  -2.199260  -4.047050  36.770300  -0.003887   0.002010  24.489000  -0.001585   0.001416  33.949000  -2.575870  -3.818690  51.065700  -0.001527  -0.002948  33.999500   0.002833  -0.001796   2.328510   0.350418  -3.444440   0.060563   1.273770   9.754060  -2.633710  -2.058650  -1.175410   0.000000   0.000000   0.000000   0.175021  -0.051337  -0.699645   0.056953   3.928950 -16.442800   0.626579  -3.945520  -5.440320   0.000000   0.000000  -0.000000
  0.347286  89.568700   0.924919  -0.787498  -0.024303   2.288370   0.538439   0.995058  -0.121329   1.079190   1.988920  -0.251948  -0.556480   2.509680   0.019863  -0.919031   5.087360   1.010470  -2.084950   1.905470   5.054160 -80.543500   2.309870   5.288140  -0.075766   6.529170 -15.562700   6.373780  -6.475150  -6.414660  37.552200  26.242200 -55.537900 -29.681500  -0.002314   0.006291  -9.840760   0.014115   0.002831 -28.750200  -1.309600   2.379360 -23.545400  -0.007888   0.000690 -16.482100  -0.005686   0.001575 -24.022500  -4.163890   9.242770 -24.359600   0.002029   0.005468 -16.223500  -0.001254  -0.010881 -28.039300  -4.799090   8.929450 -35.189800   0.003009   0.001606 -23.436400   0.002147   0.000192 -33.158000  -5.580250   8.465450 -50.356900   0.002903  -0.002355 -33.536600   0.001639   0.001030   6.006490   2.936980   1.559180  75.281400  -5.104210   0.397963   3.288780  -3.716820  11.986200 -16.601200   4.569620  -0.408796 -39.009200  34.660400  76.120100  26.901400  -0.004012  -0.004359   8.450720   0.008596  -0.002154  23.406100  -0.259836  -0.600283  19.151800   0.001644  -0.001989  13.406300   0.002336   0.001758  28.378500  -2.174320  -4.019070  35.554300   0.002300  -0.000931  23.679200  -0.000202   0.008318  28.480400  -2.182070  -4.014850  36.792600  -0.003889   0.001976  24.503900  -0.001592   0.001392  33.951700  -2.555450  -3.788440  51.061000  -0.001527  -0.002966  33.998800   0.002830  -0.001808   2.338200   0.359908  -3.440250   0.063377   1.257420   9.753760  -2.637710  -2.040670  -1.175600   0.000000   0.000000  -0.000000   0.180978  -0.050522  -0.705281   0.056934   3.928920 -16.442600   0.627231  -3.939660  -5.431280  -0.000000   0.000000   0.000000
  0.337886  89.568600   0.903729  -0.792839  -0.044212   2.285210   0.538231   1.026010  -0.123404   1.078920   2.050800  -0.256511  -0.518104   2.584920   0.019947  -0.855729   5.240500   1.055450  -2.098190   1.916240   5.112410 -80.574500   2.421490   5.233030  -0.090873   6.422880 -15.541500   6.370640  -6.467220  -6.437900  37.529600  26.268000 -55.510900 -29.754300  -0.002331   0.006307  -9.877150   0.014407   0.002833 -28.766400  -1.309330   2.379360 -23.558400  -0.007901   0.000792 -16.490900  -0.005798   0.001576 -24.082800  -4.164070   9.227590 -24.419000   0.002222   0.005571 -16.263100  -0.001041  -0.011084 -28.041000  -4.793500   8.918840 -35.200700   0.003283   0.001419 -23.443700   0.002349   0.000256 -33.153400  -5.572930   8.456110 -50.348500   0.003200  -0.002357 -33.532100   0.001801   0.001145   6.041150   2.923830   1.639370  75.293900  -4.902400   0.777486   3.198610  -3.930340  11.841200 -16.646500   5.036050  -0.310930 -39.003300  34.675600  76.126600  26.941600  -0.004023  -0.004350   8.470800   0.008602  -0.002159  23.393200  -0.217331  -0.502473  19.141000   0.001638  -0.001983  13.398700   0.002325   0.001757  28.381000  -2.157020  -3.986930  35.561300   0.002311  -0.000941  23.683900  -0.000210   0.008321  28.482800  -2.164880  -3.982650  36.842300  -0.003893   0.001898  24.537000  -0.001612   0.001336  33.954400  -2.535030  -3.758190  51.056400  -0.001528  -0.003010  33.998000   0.002821  -0.001839   2.353820   0.375398  -3.430590   0.067783   1.231780   9.753340  -2.644500  -2.011510  -1.175780   0.000000   0.000000   0.000000   0.189330  -0.044815  -0.716519   0.056802   3.928720 -16.440700   0.626183  -3.928490  -5.414480   0.000000   0.000000   0.000000
  0.328846  89.568500   0.887379  -0.796740  -0.059880   2.276620   0.538907   1.048450  -0.131135   1.080620   2.095610  -0.272311  -0.494880   2.647520   0.020052  -0.818294   5.368020   1.035600  -2.115080   1.926520   5.169250 -80.591900   2.524840   5.194900  -0.110130   6.318490 -15.538700   6.365150  -6.453300  -6.473630  37.509000  26.280500 -55.496100 -29.804700  -0.002330   0.006312  -9.902360   0.014806   0.002843 -28.767100  -1.310720   2.383690 -23.559000  -0.007917   0.000927 -16.490400  -0.005943   0.001580 -24.103700  -4.166070   9.222340 -24.439900   0.002306   0.005712 -16.277000  -0.000830  -0.011362 -28.041700  -4.790100   8.915240 -35.191300   0.003400   0.001233 -23.437400   0.002435   0.000319 -33.143800  -5.569190   8.453640 -50.333600   0.003328  -0.002363 -33.522300   0.001871   0.001193   6.074240   2.937870   1.721870  75.323300  -4.830100   1.157300   3.099000  -4.113700  11.716300 -16.658700   5.529280  -0.209626 -38.938500  34.616500  76.030800  27.028200  -0.004040  -0.004350   8.514080   0.008613  -0.002158  23.385200  -0.178570  -0.412982  19.134200   0.001629  -0.001973  13.393900   0.002307   0.001756  28.380500  -2.159830  -3.992000  35.565300   0.002328  -0.000956  23.686500  -0.000224   0.008326  28.486200  -2.168040  -3.987530  36.899700  -0.003899   0.001787  24.575200  -0.001645   0.001255  33.956800  -2.538560  -3.762780  51.060300  -0.001530  -0.003078  34.003100   0.002806  -0.001886   2.364820   0.385105  -3.417330   0.069639   1.215520   9.753100  -2.650330  -1.989560  -1.175200   0.000000   0.000000   0.000000   0.196132   0.281057  -0.729033   0.065725   3.608710 -16.429200   0.620856  -3.917290  -5.399390   0.000000   0.000000   0.000000
  0.319880  89.568400   0.871327  -0.800683  -0.078208   2.260360   0.542563   1.070710  -0.141585   1.088050   2.140020  -0.293377  -0.483988   2.712640   0.020155  -0.799661   5.500370   0.986578  -2.132670   1.938590   5.231170 -80.613100   2.632970   5.155410  -0.133876   6.216140 -15.538300   6.360830  -6.437590  -6.508640  37.499700  26.300200 -55.478200 -29.847700  -0.002327   0.006313  -9.923840   0.015205   0.002853 -28.767500  -1.314800   2.393240 -23.559500  -0.007928   0.001062 -16.490000  -0.006073   0.001585 -24.113100  -4.169000   9.219950 -24.449600   0.002335   0.005853 -16.283400  -0.000703  -0.011640 -28.042100  -4.787420   8.913630 -35.181800   0.003438   0.001122 -23.431100   0.002464   0.000357 -33.132800  -5.566470   8.453080 -50.316700   0.003371  -0.002370 -33.510900   0.001894   0.001209   6.106090   2.956600   1.812260  75.356500  -4.812150   1.577140   2.975120  -4.269560  11.606800 -16.664100   6.022410  -0.148159 -38.820700  34.499000  75.872000  27.118800  -0.004058  -0.004350   8.559400   0.008625  -0.002154  23.381600  -0.138268  -0.319797  19.130900   0.001616  -0.001959  13.391600   0.002283   0.001755  28.380100  -2.162650  -3.997070  35.579000   0.002348  -0.000976  23.695600  -0.000242   0.008333  28.493900  -2.171210  -3.992410  36.989500  -0.003907   0.001663  24.635000  -0.001689   0.001166  33.962900  -2.542100  -3.767370  51.069900  -0.001532  -0.003162  34.012600   0.002787  -0.001944   2.375940   0.398426  -3.400720   0.070066   1.199410   9.752970  -2.655990  -1.969170  -1.171900  -0.000000   0.000000   0.000000   0.202168   0.602036  -0.744505   0.074486   3.288950 -16.413200   0.612977  -3.903090  -5.378180   0.000000   0.000000   0.000000
